<svg width="603" height="913" viewBox="0 0 603 913" fill="none" xmlns="http://www.w3.org/2000/svg">
<g clip-path="url(#clip0_3_18859)">
<path opacity="0.7" d="M594.996 0H8.00443C3.5837 0 0 3.58565 0 8.00877V904.991C0 909.414 3.5837 913 8.00443 913H594.996C599.416 913 603 909.414 603 904.991V8.00877C603 3.58565 599.416 0 594.996 0Z" fill="#21838A"/>
<path d="M14.9683 30.1931V882.86H588.085V30.1931H14.9683Z" stroke="#EEFFEE" stroke-width="3"/>
<path d="M15.0216 456.5H587.872" stroke="#EEFFEE" stroke-width="3"/>
<path d="M301.5 529.647C341.876 529.647 374.607 496.898 374.607 456.5C374.607 416.102 341.876 383.353 301.5 383.353C261.124 383.353 228.393 416.102 228.393 456.5C228.393 496.898 261.124 529.647 301.5 529.647Z" stroke="#EEFFEE" stroke-width="3"/>
<path d="M301.5 459.17C302.974 459.17 304.168 457.974 304.168 456.5C304.168 455.026 302.974 453.83 301.5 453.83C300.026 453.83 298.832 455.026 298.832 456.5C298.832 457.974 300.026 459.17 301.5 459.17Z" stroke="#EEFFEE" stroke-width="3"/>
<path d="M13.2073 40.1373C19.6775 40.1373 24.9738 34.7981 24.9738 28.2576M241.76 162.805C248.529 172.361 257.488 180.155 267.887 185.533C278.285 190.912 289.821 193.719 301.527 193.719C313.233 193.719 324.768 190.912 335.167 185.533C345.566 180.155 354.524 172.361 361.293 162.805M463.083 29.8193V162.805H139.971L140.238 29.8193M271.777 30.0863V9.26348L331.276 9.26749V30.0903M227.352 29.8233V75.7403H375.701V29.8233M589.819 40.1013C583.282 40.1013 578.08 34.7621 578.08 28.2216" stroke="#EEFFEE" stroke-width="3"/>
<path d="M301.5 122.801C302.974 122.801 304.168 121.606 304.168 120.132C304.168 118.657 302.974 117.462 301.5 117.462C300.026 117.462 298.832 118.657 298.832 120.132C298.832 121.606 300.026 122.801 301.5 122.801Z" stroke="#EEFFEE" stroke-width="3"/>
<path d="M13.2073 872.863C19.6775 872.863 24.9738 878.202 24.9738 884.742M241.76 750.195C248.529 740.639 257.488 732.845 267.887 727.467C278.285 722.088 289.821 719.281 301.527 719.281C313.233 719.281 324.768 722.088 335.167 727.467C345.566 732.845 354.524 740.639 361.293 750.195M463.083 883.181V750.195H139.971L140.238 883.181M271.777 882.914V903.737L331.276 903.733V882.91M227.352 883.177V837.26H375.701V883.177M589.819 872.899C583.282 872.899 578.08 878.238 578.08 884.778" stroke="#EEFFEE" stroke-width="3"/>
<path d="M301.5 790.199C302.974 790.199 304.168 791.394 304.168 792.868C304.168 794.343 302.974 795.538 301.5 795.538C300.026 795.538 298.832 794.343 298.832 792.868C298.832 791.394 300.026 790.199 301.5 790.199Z" stroke="#EEFFEE" stroke-width="3"/>
</g>
<defs>
<clipPath id="clip0_3_18859">
<rect width="603" height="913" fill="white"/>
</clipPath>
</defs>
</svg>
